<svg fill="none" version="1.1" viewBox="0 0 1024 1024" xmlns="http://www.w3.org/2000/svg"><g fill="#000"><path d="m530.29 438.89h-475.43c-30.297 0-54.857 24.558-54.857 54.853v475.4c0 30.295 24.56 54.849 54.857 54.849h475.43c30.297 0 54.857-24.554 54.857-54.849v-475.4c0-30.295-24.56-54.853-54.857-54.853zm-384 438.83c-40.395 0-73.143-32.746-73.143-73.138 0-40.391 32.748-73.137 73.143-73.137 40.394 0 73.143 32.746 73.143 73.137 0 40.392-32.749 73.138-73.143 73.138zm182.86 0c-40.394 0-73.143-32.746-73.143-73.138 0-40.391 32.749-73.137 73.143-73.137s73.143 32.746 73.143 73.137c0 40.392-32.749 73.138-73.143 73.138z"/><path d="m530.09 365.57h-251.4c-30.274 0-54.822-24.542-54.822-54.819v-251.38c0-48.837 59.051-73.292 93.582-38.763l251.4 251.38c34.537 34.534 10.074 93.576-38.766 93.576z"/><path d="m968.38 804.58h-254.58c-30.657 0-55.514-24.855-55.514-55.51v-254.56c0-49.454 59.794-74.223 94.765-39.254l254.58 254.56c34.97 34.969 10.2 94.759-39.259 94.759l6e-3 5e-3z"/><path d="m968.38 365.69h-254.58c-30.657 0-55.514-24.856-55.514-55.511v-254.56c0-49.454 59.794-74.223 94.765-39.254l254.58 254.56c34.97 34.969 10.2 94.759-39.259 94.759l6e-3 6e-3z"/></g></svg>
