<?xml version="1.0" encoding="UTF-8" standalone="no"?>
<svg
   viewBox="25 25 300 300"
   version="1.1"
   id="svg1146"
   sodipodi:docname="osu.svg"
   inkscape:version="1.1.2 (0a00cf5339, 2022-02-04)"
   xmlns:inkscape="http://www.inkscape.org/namespaces/inkscape"
   xmlns:sodipodi="http://sodipodi.sourceforge.net/DTD/sodipodi-0.dtd"
   xmlns="http://www.w3.org/2000/svg"
   xmlns:svg="http://www.w3.org/2000/svg">
  <defs
     id="defs1150" />
  <sodipodi:namedview
     id="namedview1148"
     pagecolor="#ffffff"
     bordercolor="#666666"
     borderopacity="1.0"
     inkscape:pageshadow="2"
     inkscape:pageopacity="0.0"
     inkscape:pagecheckerboard="0"
     showgrid="false"
     inkscape:zoom="2.2641078"
     inkscape:cx="140.89435"
     inkscape:cy="150.16953"
     inkscape:window-width="1900"
     inkscape:window-height="1040"
     inkscape:window-x="10"
     inkscape:window-y="30"
     inkscape:window-maximized="1"
     inkscape:current-layer="svg1146" />
  <path
     class="st15"
     d="m 100.1,206.4 c -4.7,0 -8.8,-0.8 -12.3,-2.3 -3.5,-1.5 -6.4,-3.7 -8.6,-6.4 -2.3,-2.7 -4,-5.9 -5.2,-9.6 -1.2,-3.7 -1.7,-7.6 -1.7,-11.9 0,-4.3 0.6,-8.3 1.7,-12 1.2,-3.7 2.9,-7 5.2,-9.7 2.3,-2.7 5.2,-4.9 8.6,-6.5 3.5,-1.6 7.6,-2.4 12.3,-2.4 4.7,0 8.8,0.8 12.3,2.4 3.5,1.6 6.4,3.7 8.8,6.5 2.3,2.7 4,6 5.2,9.7 1.1,3.7 1.7,7.7 1.7,12 0,4.3 -0.6,8.2 -1.7,11.9 -1.1,3.7 -2.8,6.9 -5.2,9.6 -2.3,2.7 -5.2,4.9 -8.8,6.4 -3.4,1.6 -7.6,2.3 -12.3,2.3 z m 0,-12.1 c 4.2,0 7.2,-1.6 9,-4.7 1.8,-3.1 2.7,-7.6 2.7,-13.4 0,-5.8 -0.9,-10.3 -2.7,-13.4 -1.8,-3.1 -4.8,-4.7 -9,-4.7 -4.1,0 -7.1,1.6 -8.9,4.7 -1.8,3.1 -2.8,7.6 -2.8,13.4 0,5.8 0.9,10.3 2.8,13.4 1.8,3.2 4.8,4.7 8.9,4.7 z m 51.8,-14.5 c -4.2,-1.2 -7.5,-3 -9.8,-5.3 -2.4,-2.4 -3.5,-5.9 -3.5,-10.6 0,-5.7 2,-10.1 6.1,-13.4 4.1,-3.2 9.6,-4.8 16.7,-4.8 a 49.13,49.13 0 0 1 17.2,3.2 c -0.2,1.9 -0.5,4 -1.1,6.1 -0.6,2.1 -1.3,3.9 -2.1,5.5 -1.8,-0.7 -3.8,-1.4 -5.9,-2 -2.2,-0.6 -4.5,-0.8 -6.8,-0.8 -2.5,0 -4.5,0.4 -5.9,1.2 -1.4,0.8 -2.1,2 -2.1,3.8 0,1.6 0.5,2.8 1.5,3.5 1,0.7 2.4,1.3 4.3,1.9 l 6.4,1.9 c 2.1,0.6 4,1.3 5.7,2.2 1.7,0.9 3.1,1.9 4.3,3.2 1.2,1.3 2.1,2.8 2.8,4.7 0.7,1.9 1,4.2 1,6.8 0,2.8 -0.6,5.3 -1.7,7.7 a 17.6,17.6 0 0 1 -5,6.2 c -2.2,1.8 -4.9,3.1 -8,4.2 a 35,35 0 0 1 -10.7,1.5 c -1.8,0 -3.4,-0.1 -4.9,-0.2 -1.5,-0.1 -2.9,-0.3 -4.3,-0.6 -1.4,-0.3 -2.7,-0.6 -4.1,-1 -1.3,-0.4 -2.8,-0.9 -4.4,-1.5 0.1,-2 0.5,-4.1 1.1,-6.1 0.6,-2.1 1.3,-4.1 2.2,-6 2.5,1 4.8,1.7 7,2.2 2.2,0.5 4.5,0.7 6.9,0.7 1,0 2.2,-0.1 3.4,-0.3 1.2,-0.2 2.4,-0.5 3.4,-1 1,-0.5 1.9,-1.1 2.6,-1.9 0.7,-0.8 1.1,-1.8 1.1,-3.1 0,-1.8 -0.5,-3.1 -1.6,-3.9 -1.1,-0.8 -2.6,-1.5 -4.5,-2.1 z m 39.3,-32.7 c 2.7,-0.4 5.3,-0.7 8,-0.7 2.6,0 5.3,0.2 8,0.7 v 30.7 c 0,3.1 0.2,5.6 0.7,7.6 0.5,2 1.2,3.6 2.2,4.7 1,1.2 2.3,2 3.8,2.5 1.5,0.5 3.3,0.7 5.3,0.7 2.8,0 5.1,-0.3 7,-0.8 v -45.4 c 2.7,-0.4 5.3,-0.7 7.9,-0.7 2.6,0 5.3,0.2 8,0.7 v 55.8 c -2.4,0.8 -5.6,1.6 -9.5,2.4 a 65.33,65.33 0 0 1 -23.3,0.3 c -3.5,-0.6 -6.6,-1.9 -9.3,-3.8 -2.7,-1.9 -4.8,-4.8 -6.3,-8.5 -1.6,-3.7 -2.4,-8.7 -2.4,-14.9 v -31.3 z m 65.9,58 c -0.4,-2.8 -0.7,-5.5 -0.7,-8.2 0,-2.7 0.2,-5.5 0.7,-8.3 2.8,-0.4 5.5,-0.7 8.2,-0.7 2.7,0 5.5,0.2 8.3,0.7 0.4,2.8 0.7,5.6 0.7,8.2 0,2.8 -0.2,5.5 -0.7,8.3 -2.8,0.4 -5.6,0.7 -8.2,0.7 -2.8,-0.1 -5.5,-0.3 -8.3,-0.7 z m -0.4,-80.7 c 2.9,-0.4 5.8,-0.7 8.6,-0.7 2.9,0 5.8,0.2 8.8,0.7 l -1.1,54.9 c -2.6,0.4 -5.1,0.7 -7.5,0.7 -2.5,0 -5.1,-0.2 -7.6,-0.7 z"
     id="path1142-3"
     style="fill:#000000;fill-opacity:1" />
  <circle
     style="fill:none;stroke:#000000;stroke-width:13.06;stroke-miterlimit:4;stroke-dasharray:none;stroke-opacity:1"
     id="path1254"
     cx="174.99998"
     cy="174.99997"
     r="140.43234" />
</svg>
