<svg version="1.1" viewBox="0 0 512 475.43" xmlns="http://www.w3.org/2000/svg">
	<defs>
		<clipPath id="a">
			<path d="m66.625 35.197-66.625 77.939-23.111 469.97 382.22-40.889 22.412-66.795-49.654-22.25-7.8691-6.9551-8.666-10-12-14.223-4.0098-6.209a188.56 188.56 0 0 0 126.2-177.95 188.56 188.56 0 0 0-188.56-188.56 188.56 188.56 0 0 0-116.18 40.043l-23.354-42.811z" display="none" fill="#fff" stroke-width="2.0734" style="mix-blend-mode:difference"/>
			<path class="powerclip" d="m-5.6285-4.7472h485.18v485.18h-485.18zm72.254 39.944-66.625 77.939-23.111 469.97 382.22-40.889 22.412-66.795-49.654-22.25-7.8691-6.9551-8.666-10-12-14.223-4.0098-6.209a188.56 188.56 0 0 0 126.2-177.95 188.56 188.56 0 0 0-188.56-188.56 188.56 188.56 0 0 0-116.18 40.043l-23.354-42.811z" fill="#fff" stroke-width="2.0734" style="mix-blend-mode:difference"/>
		</clipPath>
		<clipPath id="b">
			<path d="m158.67 36.445-140.44 20.889 10.666 68.443s5.1724 20.444 13.096 31.35c7.9233 10.906 16.238 17.984 16.238 17.984l0.62305 0.83203a188.56 188.56 0 0 0-10.447 61.896 188.56 188.56 0 0 0 188.56 188.56 188.56 188.56 0 0 0 9.3457-0.23242h2e-3l0.61328 0.82031s7.9692 17.01 14.191 24.344c6.2222 7.3333 20.443 18.221 20.443 18.221l100.07 9.4336-41.855-83.078a188.56 188.56 0 0 0 85.754-158.07 188.56 188.56 0 0 0-188.56-188.56 188.56 188.56 0 0 0-65.848 11.869z" display="none" fill="#fff" stroke-width="2.0734" style="mix-blend-mode:normal"/>
			<path class="powerclip" d="m-5.6285-4.7472h485.18v485.18h-485.18zm164.29 41.193-140.44 20.889 10.666 68.443s5.1724 20.444 13.096 31.35c7.9233 10.906 16.238 17.984 16.238 17.984l0.62305 0.83203a188.56 188.56 0 0 0-10.447 61.896 188.56 188.56 0 0 0 188.56 188.56 188.56 188.56 0 0 0 9.3457-0.23242h2e-3l0.61328 0.82031s7.9692 17.01 14.191 24.344c6.2222 7.3333 20.443 18.221 20.443 18.221l100.07 9.4336-41.855-83.078a188.56 188.56 0 0 0 85.754-158.07 188.56 188.56 0 0 0-188.56-188.56 188.56 188.56 0 0 0-65.848 11.869z" fill="#fff" stroke-width="2.0734" style="mix-blend-mode:normal"/>
		</clipPath>
	</defs>
	<g style="mix-blend-mode:normal">
		<path d="m474.55 237.84a237.59 237.59 0 0 1-237.59 237.59 237.59 237.59 0 0 1-237.59-237.59 237.59 237.59 0 0 1 237.59-237.59 237.59 237.59 0 0 1 237.59 237.59z" clip-path="url(#b)" fill="#39b3cf" fill-opacity=".93726" stroke-width="2.0734" style="mix-blend-mode:normal"/>
		<g>
			<circle cx="143.62" cy="97.109" r="68.511" stroke-width="1.6975" style="mix-blend-mode:normal"/>
			<path d="m474.55 237.84a237.59 237.59 0 0 1-237.59 237.59 237.59 237.59 0 0 1-237.59-237.59 237.59 237.59 0 0 1 237.59-237.59 237.59 237.59 0 0 1 237.59 237.59z" clip-path="url(#a)" stroke-width="2.0734" style="mix-blend-mode:normal"/>
			<path d="m315.39 435.37c15.661 24.948 50.295 38.781 96.506 38.075 67.759-1.0349 100.13-60.734 100.13-60.734s-24.1 23.244-50.676 22.745c-30.807-0.57771-53.74-32.684-53.74-32.684l-24.513-23.256-51.54 55.94s-19.092-4.7523-16.164-0.0866z" stroke-width="1.8293" style="mix-blend-mode:normal"/>
		</g>
	</g>
</svg>
