<svg version="1.1" viewBox="0 0 88.321 88.473" xmlns="http://www.w3.org/2000/svg">
	<path d="m44.084 0c-23.238 0-42.275 17.918-44.084 40.689l23.71 9.803c2.009-1.374 4.436-2.179 7.047-2.179 0.234 0 0.467 0.01 0.698 0.021l10.544-15.283v-0.216c0-9.199 7.483-16.683 16.683-16.683 9.199 0 16.682 7.484 16.682 16.683s-7.483 16.684-16.682 16.684c-0.127 0-0.253 0-0.379-0.01l-15.038 10.73c0.01 0.195 0.015 0.394 0.015 0.592 0 6.906-5.617 12.522-12.522 12.522-6.061 0-11.129-4.326-12.277-10.055l-16.957-7.006c5.25 18.568 22.309 32.181 42.56 32.181 24.432 0 44.237-19.806 44.237-44.235 0-24.433-19.806-44.238-44.237-44.238"/>
	<path d="m27.721 67.122-5.434-2.245c0.963 2.005 2.629 3.684 4.841 4.606 4.782 1.992 10.295-0.277 12.288-5.063 0.965-2.314 0.971-4.869 0.014-7.189-0.955-2.321-2.757-4.131-5.074-5.097-2.299-0.957-4.762-0.922-6.926-0.105l5.613 2.321c3.527 1.47 5.195 5.52 3.725 9.047-1.467 3.528-5.52 5.196-9.047 3.725"/>
	<path d="m69.796 32.835c0-6.129-4.986-11.116-11.116-11.116-6.129 0-11.116 4.987-11.116 11.116 0 6.13 4.987 11.115 11.116 11.115 6.13 0 11.116-4.986 11.116-11.115m-19.448-0.019c0-4.612 3.739-8.35 8.351-8.35s8.351 3.738 8.351 8.35-3.739 8.35-8.351 8.35-8.351-3.739-8.351-8.35"/>
</svg>
