<svg version="1.1" viewBox="0 0 130.41 108.05" xmlns="http://www.w3.org/2000/svg">
	<path d="m8.9291 46.6c35-15.2 58.3-25.3 70-30.2 33.3-13.9 40.3-16.3 44.8-16.4 1 0 3.2 0.2 4.7 1.4 1.2 1 1.5 2.3 1.7 3.3s0.4 3.1 0.2 4.7c-1.8 19-9.6 65.1-13.6 86.3-1.7 9-5 12-8.2 12.3-7 0.6-12.3-4.6-19-9-10.6-6.9-16.5-11.2-26.8-18-11.9-7.8-4.2-12.1 2.6-19.1 1.8-1.8 32.5-29.8 33.1-32.3 0.1-0.3 0.1-1.5-0.6-2.1s-1.7-0.4-2.5-0.2c-1.1 0.2-17.9 11.4-50.6 33.5-4.8 3.3-9.1 4.9-13 4.8-4.3-0.1-12.5-2.4-18.7-4.4-7.5-2.4-13.5-3.7-13-7.9 0.3-2.2 3.3-4.4 8.9-6.7z" clip-rule="evenodd" fill-rule="evenodd"/>
</svg>
