<?xml version="1.0" encoding="UTF-8" standalone="no"?>
<!DOCTYPE svg PUBLIC "-//W3C//DTD SVG 1.1//EN" "http://www.w3.org/Graphics/SVG/1.1/DTD/svg11.dtd">
<svg version="1.1" xmlns="http://www.w3.org/2000/svg" xmlns:xlink="http://www.w3.org/1999/xlink" preserveAspectRatio="xMidYMid meet" viewBox="0 0 640 640" width="640" height="640"><defs><path d="M0 0L640 0L640 640L0 640L0 0Z" id="b38HhBPqTP"></path><path d="M480 160L640 0L480 0L480 160Z" id="a1NVd4Rl9J"></path><path d="M480 0L320 160L480 160L480 0Z" id="deALJjs9g"></path><path d="M480 320L640 160L480 160L480 320Z" id="b2SXWJuPEK"></path><path d="M320 0L160 160L320 160L320 0Z" id="campkKyYP"></path><path d="M320 160L160 320L320 320L320 160Z" id="b6euULVhzK"></path><path d="M320 320L160 480L320 480L320 320Z" id="a8wAlMIec"></path><path d="M320 480L160 640L320 640L320 480Z" id="d3K397oREE"></path><path d="M160 480L0 640L160 640L160 480Z" id="d3yVZzs5ws"></path><path d="M480 480L320 640L480 640L480 480Z" id="j2CnrTAxXD"></path><path d="M640 480L480 640L640 640L640 480Z" id="auEyFBsSF"></path><path d="M0 0L160 0L160 480L0 480L0 0Z" id="a1tcFfl41"></path></defs><g><g><g><use xlink:href="#b38HhBPqTP" opacity="1" fill="#6db4d5" fill-opacity="1"></use></g><g><use xlink:href="#a1NVd4Rl9J" opacity="1" fill="#c2f1ff" fill-opacity="1"></use></g><g><use xlink:href="#deALJjs9g" opacity="1" fill="#c2f1ff" fill-opacity="1"></use></g><g><use xlink:href="#b2SXWJuPEK" opacity="1" fill="#c2f1ff" fill-opacity="1"></use></g><g><use xlink:href="#campkKyYP" opacity="1" fill="#c2f1ff" fill-opacity="1"></use></g><g><use xlink:href="#b6euULVhzK" opacity="1" fill="#c2f1ff" fill-opacity="1"></use></g><g><use xlink:href="#a8wAlMIec" opacity="1" fill="#c2f1ff" fill-opacity="1"></use></g><g><use xlink:href="#d3K397oREE" opacity="1" fill="#c2f1ff" fill-opacity="1"></use></g><g><use xlink:href="#d3yVZzs5ws" opacity="1" fill="#c2f1ff" fill-opacity="1"></use></g><g><use xlink:href="#j2CnrTAxXD" opacity="1" fill="#c2f1ff" fill-opacity="1"></use></g><g><use xlink:href="#auEyFBsSF" opacity="1" fill="#c2f1ff" fill-opacity="1"></use></g><g><use xlink:href="#a1tcFfl41" opacity="1" fill="#c2f1ff" fill-opacity="1"></use></g></g></g></svg>