<?xml version="1.0" encoding="UTF-8"?>
<svg width="512.06" height="512.06" version="1.1" viewBox="0 0 512.06 512.06" xmlns="http://www.w3.org/2000/svg">
 <!--!Font Awesome Free 7.0.0 by @fontawesome - https://fontawesome.com License - https://fontawesome.com/license/free Copyright 2025 Fonticons, Inc.-->
 <path d="m271.96 12.23c-9.8-5.6-21.9-5.6-31.8 0l-224 128c-12.6 7.2-18.8 22-15.1 36s16.5 23.8 31 23.8h32v208l-51.2 38.4c-8.1 6-12.8 15.5-12.8 25.6 0 17.7 14.3 32 32 32h448c17.7 0 32-14.3 32-32 0-10.1-4.7-19.6-12.8-25.6l-51.2-38.4v-208h32c14.5 0 27.2-9.8 30.9-23.8s-2.5-28.8-15.1-36l-224-128zm128.1 187.8v208h-64v-208zm-112 0v208h-64v-208zm-112 0v208h-64v-208zm80-112c17.7 0 32 14.3 32 32s-14.3 32-32 32-32-14.3-32-32 14.3-32 32-32z"/>
</svg>
