<?xml version="1.0" encoding="UTF-8"?>
<svg width="240.48" height="240.48" fill="none" version="1.1" viewBox="0 0 240.48 240.48" xmlns="http://www.w3.org/2000/svg">
 <mask id="mask0_1_219" x="-1" y="0" width="242" height="194" maskUnits="userSpaceOnUse">
  <path d="m240.47 0.95898h-240.47v192.96h240.47z" fill="#fff"/>
 </mask>
 <g transform="translate(.0058594 22.799)" mask="url(#mask0_1_219)">
  <path d="m96.134 193.91c-35.003 0-63.475-15.655-80.162-44.082-14.774-24.917-15.978-51.906-15.978-82.063 0-17.879 5.3788-33.445 15.547-45.02 9.3448-10.631 22.586-17.518 37.29-19.393 17.454-2.2111 39.153-2.3948 61.713-2.3948 36.714 0 47.085 0.44982 61.53 1.8943 19.215 1.907 35.383 9.0787 46.749 20.742 11.544 11.847 17.645 27.667 17.645 45.767v3.6367c0 30.886-20.648 56.734-49.423 63.76-2.148 5.068-4.809 10.112-7.957 15.078l-0.083 0.127c-10.137 15.668-33.964 41.954-79.605 41.954h-7.2729z" fill="#fff"/>
  <path d="m174.57 17.977c-13.641-1.3621-23.188-1.8183-60.016-1.8183-23.644 0-43.651 0.2281-59.788 2.2745-21.37 2.7306-39.559 19.095-39.559 49.334 0 30.239 1.5902 53.655 13.868 74.34 13.868 23.644 37.056 36.6 67.067 36.6h7.2728c36.828 0 56.836-19.551 66.839-35.009 4.321-6.824 7.501-13.64 9.548-20.464 26.146-2.274 45.469-23.872 45.469-50.24v-3.6364c0-28.414-18.639-48.194-50.696-51.38z" fill="#fff"/>
  <path d="m15.198 67.767c0-30.239 18.189-46.603 39.558-49.334 16.143-2.0464 36.15-2.2745 59.788-2.2745 36.828 0 46.375 0.4562 60.015 1.8183 32.058 3.1804 50.696 22.96 50.696 51.38v3.6364c0 26.375-19.323 47.972-45.469 50.24-2.046 6.824-5.227 13.64-9.548 20.464-10.003 15.458-30.01 35.009-66.838 35.009h-7.2736c-30.011 0-53.199-12.956-67.067-36.6-12.278-20.685-13.868-43.651-13.868-74.34" fill="#202020"/>
  <path d="m32.247 67.99c0 29.327 1.8185 48.194 11.366 65.699 10.91 20.235 30.689 27.964 53.199 27.964h7.0453c29.554 0 43.879-14.324 51.836-26.824 3.865-6.367 7.273-13.412 9.091-22.282l1.363-5.683h8.185c18.189 0 33.876-14.774 33.876-33.647v-3.4084c0-21.141-13.184-32.285-36.15-35.01-12.956-1.1341-20.686-1.5903-57.52-1.5903-24.778 0-42.511 0.228-55.923 2.2744-18.867 2.7306-26.374 13.412-26.374 32.507" fill="#fff"/>
  <path d="m166.16 83.68c0 2.7306 2.046 4.7771 5.683 4.7771 11.594 0 17.961-6.5953 17.961-17.505s-6.367-17.733-17.961-17.733c-3.637 0-5.683 2.0462-5.683 4.7768v25.69z" fill="#202020"/>
  <path d="m54.532 82.32c0 13.412 7.5011 25.006 17.049 34.104 6.3671 6.138 16.371 12.506 23.188 16.598 2.0462 1.135 4.0926 1.819 6.3675 1.819 2.73 0 4.998-0.684 6.823-1.819 6.823-4.092 16.82-10.46 22.96-16.598 9.775-9.092 17.276-20.686 17.276-34.104 0-14.552-10.909-27.508-26.596-27.508-9.319 0-15.687 4.7767-20.463 11.366-4.3213-6.5952-10.91-11.366-20.236-11.366-15.915 0-26.374 12.956-26.374 27.508" fill="#ff5a16"/>
 </g>
</svg>
