<?xml version="1.0" encoding="UTF-8"?>
<svg xmlns="http://www.w3.org/2000/svg" version="1.1" viewBox="0 0 373.5096 450">
  <defs>
    <style>
      .cls-1 {
        fill: #008cff;
      }

      .cls-2 {
        fill: #60cdff;
      }

      .cls-3 {
        fill: #002991;
      }
    </style>
  </defs>
  <!-- Generator: Adobe Illustrator 28.7.1, SVG Export Plug-In . SVG Version: 1.2.0 Build 142)  -->
  <g>
    <g id="Layer_1">
      <g>
        <path class="cls-3" d="M318.58,103.5c0,55.74-51.44,121.5-129.27,121.5h-74.97l-3.68,23.22-17.49,111.78H0L56.05,0h150.95c50.83,0,90.82,28.33,105.55,67.7,4.2482,11.4467,6.2941,23.5933,6.03,35.8Z"/>
        <path class="cls-2" d="M372.28,207c-10.2713,62.4081-64.2924,108.1528-127.54,108h-52.06l-21.67,135h-92.67l14.83-90,17.5-111.78,3.67-23.22h74.97c77.73,0,129.27-65.76,129.27-121.5,38.25,19.74,60.55,59.63,53.7,103.5Z"/>
        <path class="cls-1" d="M318.58,103.5c-16.04-8.39-35.49-13.5-56.66-13.5h-126.4l-21.18,135h74.97c77.73,0,129.27-65.76,129.27-121.5Z"/>
      </g>
    </g>
  </g>
</svg>