<?xml version="1.0" encoding="UTF-8"?>
<svg width="144.59" height="140.37" fill="none" version="1.1" viewBox="0 0 144.59 140.37" xmlns="http://www.w3.org/2000/svg">
 <path d="m12.049 70.186c0-27.291 18.134-50.305 42.895-57.775v-12.411c-31.569 7.7114-54.944 36.208-54.944 70.186 0 33.978 23.375 62.474 54.944 70.186v-12.411c-24.761-7.41-42.895-30.484-42.895-57.775zm86.151 13.435c0-14.134-12.706-16.83-23.542-19.13-8.0546-1.7093-15.076-3.1993-15.076-9.0048 0-4.8799 3.916-8.0127 11.386-8.0127 8.9164 0 11.989 4.3377 12.953 10.182h12.29c-1.0965-10.967-7.3909-17.892-17.893-19.954v-9.6862h-12.049v9.3404c-11.505 1.4652-18.736 8.1651-18.736 18.132 0 14.272 12.85 17.235 23.736 19.746 8.001 1.8452 14.942 3.4459 14.942 9.1116 0 5.0606-4.8799 8.4343-13.134 8.4343-10.784 0-14.338-4.7594-15.664-11.326h-11.989c0.7766 12.012 8.1838 19.53 20.845 21.406v9.5h12.049v-9.373c12.357-1.597 19.881-8.7852 19.881-19.364zm-8.5547-71.21v-12.411c31.568 7.7114 54.944 36.207 54.944 70.186 0 33.978-23.376 62.474-54.944 70.186v-12.411c24.761-7.47 42.894-30.484 42.894-57.775 0-27.291-18.133-50.305-42.894-57.775z" clip-rule="evenodd" fill="currentColor" fill-rule="evenodd"/>
</svg>
