<?xml version="1.0" encoding="UTF-8"?>
<svg width="240.19" height="240.19" version="1.1" viewBox="0 0 240.19 240.19" xml:space="preserve" xmlns="http://www.w3.org/2000/svg"><g transform="translate(16.378)"><path d="m12.049 70.186c0-27.291 18.134-50.305 42.895-57.775v-12.411c-31.569 7.7114-54.944 36.208-54.944 70.186s23.375 62.474 54.944 70.186v-12.411c-24.761-7.41-42.895-30.484-42.895-57.775zm86.151 13.435c0-14.134-12.706-16.83-23.542-19.13-8.0546-1.7093-15.076-3.1993-15.076-9.0048 0-4.8799 3.916-8.0127 11.386-8.0127 8.9164 0 11.989 4.3377 12.953 10.182h12.29c-1.0965-10.967-7.3909-17.892-17.893-19.954v-9.6862h-12.049v9.3404c-11.505 1.4652-18.736 8.1651-18.736 18.132 0 14.272 12.85 17.235 23.736 19.746 8.001 1.8452 14.942 3.4459 14.942 9.1116 0 5.0606-4.8799 8.4343-13.134 8.4343-10.784 0-14.338-4.7594-15.664-11.326h-11.989c0.7766 12.012 8.1838 19.53 20.845 21.406v9.5h12.049v-9.373c12.357-1.597 19.881-8.7852 19.881-19.364zm-8.5547-71.21v-12.411c31.568 7.7114 54.944 36.207 54.944 70.186 0 33.978-23.376 62.474-54.944 70.186v-12.411c24.761-7.47 42.894-30.484 42.894-57.775s-18.133-50.305-42.894-57.775z" clip-rule="evenodd" fill="currentColor" fill-rule="evenodd"/><g transform="matrix(.80044 0 0 .80044 64.128 111.45)" fill="none"><path d="m128.32 0-50.232 28.85v90.041l-27.716 16.066-27.886-16.079v-32.147l27.886-15.923 17.93 10.398v-26.009l-18.087-10.268-50.22 29.176v57.712l50.39 29.019 50.219-29.019v-90.028l27.886-16.08 27.872 16.08v32.003l-27.872 16.223-18.087-10.49v25.879l17.917 10.333 50.715-28.849v-58.038z" fill="#000"/></g></g></svg>
